
        <svg xmlns="http://www.w3.org/2000/svg" xmlns:xlink="http://www.w3.org/1999/xlink" version="1.1" width="3162.1621621621625" 
        height="566.3660890019207" viewBox="0 -16.216216216216218 3162.1621621621625 566.3660890019207">
			
			<g transform="scale(8.108108108108109) translate(10, 10)">
				<defs id="SvgjsDefs3498"></defs><g id="SvgjsG3499" featureKey="symbolFeature-0" transform="matrix(1.5384615384615385,0,0,1.5384615384615385,0,-2)" fill="#ffffff"><path xmlns="http://www.w3.org/2000/svg" fill="#ffffff" d="M300.414214,90 L312.707107,102.292893 C313.097631,102.683418 313.097631,103.316582 312.707107,103.707107 C312.316582,104.097631 311.683418,104.097631 311.292893,103.707107 L298.292893,90.7071068 C297.902369,90.3165825 297.902369,89.6834175 298.292893,89.2928932 L311.292893,76.2928932 C311.683418,75.9023689 312.316582,75.9023689 312.707107,76.2928932 C313.097631,76.6834175 313.097631,77.3165825 312.707107,77.7071068 L300.414214,90 Z M330,94 C327.790861,94 326,92.209139 326,90 C326,87.790861 327.790861,86 330,86 C332.209139,86 334,87.790861 334,90 C334,92.209139 332.209139,94 330,94 Z M330,92 C331.104569,92 332,91.1045695 332,90 C332,88.8954305 331.104569,88 330,88 C328.895431,88 328,88.8954305 328,90 C328,91.1045695 328.895431,92 330,92 Z M342,94 C339.790861,94 338,92.209139 338,90 C338,87.790861 339.790861,86 342,86 C344.209139,86 346,87.790861 346,90 C346,92.209139 344.209139,94 342,94 Z M342,92 C343.104569,92 344,91.1045695 344,90 C344,88.8954305 343.104569,88 342,88 C340.895431,88 340,88.8954305 340,90 C340,91.1045695 340.895431,92 342,92 Z M318,94 C315.790861,94 314,92.209139 314,90 C314,87.790861 315.790861,86 318,86 C320.209139,86 322,87.790861 322,90 C322,92.209139 320.209139,94 318,94 Z M318,92 C319.104569,92 320,91.1045695 320,90 C320,88.8954305 319.104569,88 318,88 C316.895431,88 316,88.8954305 316,90 C316,91.1045695 316.895431,92 318,92 Z M360.585786,90 L348.292893,77.7071068 C347.902369,77.3165825 347.902369,76.6834175 348.292893,76.2928932 C348.683418,75.9023689 349.316582,75.9023689 349.707107,76.2928932 L362.707107,89.2928932 C363.097631,89.6834175 363.097631,90.3165825 362.707107,90.7071068 L349.707107,103.707107 C349.316582,104.097631 348.683418,104.097631 348.292893,103.707107 C347.902369,103.316582 347.902369,102.683418 348.292893,102.292893 L360.585786,90 Z" transform="translate(-298 -76)"></path></g><g id="SvgjsG3500" featureKey="nameFeature-0" transform="matrix(1.6276041019914906,0,0,1.6276041019914906,116.02864977851908,-17.968558302777677)" fill="#ffffff"><path d="M2.44 11.52 c1.06668 -0.18668 2.186796 -0.313438 3.360116 -0.380117 s2.54664 -0.1 4.11996 -0.1 c1.49332 0 2.88664 0.12 4.17996 0.36 s2.42 0.65332 3.38 1.24 s1.71332 1.37336 2.26 2.36004 s0.82 2.22668 0.82 3.72 c0 1.22668 -0.24668 2.36 -0.74 3.4 s-1.11332 1.86668 -1.86 2.48 c0.56 0.24 1.10668 0.55332 1.64 0.94 s1.00664 0.87336 1.41996 1.46004 s0.75332 1.27336 1.02 2.06004 s0.4 1.67336 0.4 2.66004 c0 1.76 -0.32 3.20668 -0.96 4.34 s-1.51332 2.02 -2.62 2.66 s-2.38 1.08668 -3.82 1.34 s-2.96 0.38 -4.56 0.38 c-1.12 0 -2.34 -0.03332 -3.66 -0.1 s-2.78 -0.193359 -4.38 -0.380039 l0 -28.44 z M9.00012 34.87992 c0.37332 0.05332 0.75332 0.08668 1.14 0.1 s0.72668 0.02 1.02 0.02 c0.48 0 1 -0.04668 1.56 -0.14 s1.06668 -0.27332 1.52 -0.54 s0.83332 -0.63336 1.14 -1.10004 s0.46 -1.08668 0.46 -1.86 c0 -0.72 -0.12 -1.30668 -0.36 -1.76 s-0.57332 -0.80664 -1 -1.05996 s-0.94 -0.43332 -1.54 -0.54 s-1.27332 -0.16 -2.02 -0.16 l-1.92 0 l0 7.04 z M10.28012 22.71996 c1.2 0.05332 2.18672 -0.16 2.96004 -0.64 s1.16 -1.4 1.16 -2.76 c0 -0.66668 -0.12 -1.20668 -0.36 -1.62 s-0.55332 -0.74 -0.94 -0.98 s-0.81336 -0.4 -1.28004 -0.48 s-0.92668 -0.12 -1.38 -0.12 l-0.72 0 l-0.72 0.08 l0 6.48 z M32.32 16.4 l-2.84 0 l2.6 -4.96 l8.8 0 l8.96 28.56 l-6.88 0 l-1.6 -5.72 l-1.56 0.12 l-5.56 0 l-1.36 -0.12 l-1.64 5.72 l-6.44 0 z M39.8 28.84 l-2.64 -9.52 l-2.8 9.52 l5.44 0 z M54.28 16.4 l-3.8 0 l2.6 -5 l6.56 0 l9.48 15.68 l0.24 0.68 l0 -16.36 l6.24 0 l0 28.6 l-5.32 0 l-9.6 -15.8 l-0.2 -0.6 l0 16.4 l-6.2 0 l0 -23.6 z M82.84 16.4 l-3.8 0 l2.6 -5 l6.56 0 l9.48 15.68 l0.24 0.68 l0 -16.36 l6.24 0 l0 28.6 l-5.32 0 l-9.6 -15.8 l-0.2 -0.6 l0 16.4 l-6.2 0 l0 -23.6 z M115.8 16.4 l-2.84 0 l2.6 -4.96 l8.8 0 l8.96 28.56 l-6.88 0 l-1.6 -5.72 l-1.56 0.12 l-5.56 0 l-1.36 -0.12 l-1.64 5.72 l-6.44 0 z M123.28 28.84 l-2.64 -9.52 l-2.8 9.52 l5.44 0 z M140.52 29.68 l-0.38 -0.76 l-1.02 -2.06 l-1.44 -2.94 l-1.64 -3.36 c-1.30668 -2.66668 -2.8 -5.72 -4.48 -9.16 l7.2 0 l5.16 11.76 c0.96 -2.18668 1.81332 -4.14668 2.56 -5.88 c0.32 -0.72 0.63332 -1.43332 0.94 -2.14 s0.58 -1.34 0.82 -1.9 s0.43332 -1.00668 0.58 -1.34 l0.22 -0.5 l7 0 l-8.96 18.32 l0 10.32 l-6.56 0 l0 -10.36 z"></path></g>
			</g>
		</svg>
	